<svg width="17" height="21" viewBox="0 0 17 21" fill="none" xmlns="http://www.w3.org/2000/svg">
<path d="M6.8475 5.43398L7.63382 4.81616L6.8475 5.43398ZM9.06553 13.2979L10.0655 13.2979L10.0655 13.2978L9.06553 13.2979ZM8.3584 20.6591C8.74893 21.0496 9.38209 21.0496 9.77262 20.6591L16.1366 14.2951C16.5271 13.9046 16.5271 13.2714 16.1366 12.8809C15.7461 12.4904 15.1129 12.4904 14.7224 12.8809L9.06552 18.5377L3.40868 12.8809C3.01815 12.4903 2.38499 12.4903 1.99446 12.8809C1.60394 13.2714 1.60394 13.9046 1.99446 14.2951L8.3584 20.6591ZM0.999962 1.60282C0.732308 2.56634 0.732056 2.56627 0.731818 2.5662C0.731756 2.56619 0.731531 2.56612 0.731409 2.56609C0.731164 2.56602 0.730973 2.56597 0.730836 2.56593C0.730562 2.56585 0.730504 2.56584 0.730659 2.56588C0.730971 2.56597 0.732135 2.5663 0.734134 2.56687C0.738133 2.56802 0.745466 2.57015 0.755983 2.57328C0.777021 2.57954 0.81076 2.5898 0.855991 2.60425C0.946508 2.63316 1.0827 2.67872 1.25492 2.74241C1.60006 2.87002 2.08606 3.06898 2.6372 3.35041C3.74976 3.91854 5.07412 4.79554 6.06118 6.05181L7.63382 4.81616C6.40288 3.24951 4.80347 2.21094 3.54676 1.56921C2.91326 1.24572 2.35326 1.01618 1.94854 0.866535C1.74584 0.791587 1.58115 0.736326 1.46451 0.699072C1.40616 0.680436 1.35976 0.666279 1.32655 0.656393C1.30994 0.65145 1.29662 0.647572 1.28675 0.644734C1.28181 0.643315 1.27774 0.642155 1.27454 0.641252C1.27294 0.640801 1.27157 0.640414 1.27041 0.64009C1.26983 0.639928 1.26931 0.639782 1.26885 0.639652C1.26861 0.639587 1.26831 0.639501 1.26819 0.639469C1.2679 0.639387 1.26762 0.63931 0.999962 1.60282ZM6.06118 6.05181C7.01412 7.26463 7.53395 9.03017 7.80272 10.5939C7.93423 11.359 8.00019 12.0421 8.03311 12.533C8.04954 12.7779 8.05765 12.9736 8.06165 13.1059C8.06365 13.1721 8.06462 13.2224 8.06509 13.255C8.06533 13.2712 8.06544 13.2831 8.06549 13.2903C8.06551 13.294 8.06552 13.2964 8.06553 13.2977C8.06553 13.2983 8.06553 13.2986 8.06553 13.2987C8.06553 13.2987 8.06553 13.2986 8.06553 13.2985C8.06553 13.2984 8.06553 13.2983 8.06553 13.2982C8.06553 13.2981 8.06553 13.2979 9.06553 13.2979C10.0655 13.2978 10.0655 13.2976 10.0655 13.2974C10.0655 13.2973 10.0655 13.297 10.0655 13.2968C10.0655 13.2963 10.0655 13.2958 10.0655 13.2952C10.0655 13.294 10.0655 13.2925 10.0655 13.2907C10.0655 13.2871 10.0655 13.2823 10.0654 13.2763C10.0654 13.2642 10.0652 13.2475 10.0649 13.2262C10.0643 13.1835 10.0631 13.1227 10.0607 13.0455C10.0561 12.8912 10.0469 12.671 10.0286 12.3992C9.99224 11.8567 9.91957 11.1031 9.77382 10.2551C9.48808 8.59265 8.8989 6.42626 7.63382 4.81616L6.06118 6.05181ZM8.06553 13.2978L8.06551 19.952L10.0655 19.952L10.0655 13.2979L8.06553 13.2978Z" fill="#5D727E"/>
</svg>
