<svg width="31.58" height="25" viewBox="0 0 46 37" fill="none" xmlns="http://www.w3.org/2000/svg">
<path d="M43.6244 0H2.37546C1.06566 0 0 1.20466 0 2.6853V29.1111C0 30.5917 1.06566 31.7964 2.37546 31.7964H14.9256V35.0051H12.5393C12.1955 35.0051 11.9167 35.3203 11.9167 35.7088C11.9167 36.0974 12.1955 36.4126 12.5393 36.4126H33.3939C33.7377 36.4126 34.0165 36.0974 34.0165 35.7088C34.0165 35.3203 33.7377 35.0051 33.3939 35.0051H31.0076V31.7964H43.6245C44.9343 31.7964 46 30.5917 46 29.1111V2.6853C45.9999 1.20466 44.9342 0 43.6244 0ZM2.37546 1.40745H43.6244C44.2477 1.40745 44.7548 1.98064 44.7548 2.6853V26.9123H1.24505V2.6853C1.24505 1.98064 1.7521 1.40745 2.37546 1.40745ZM29.7624 35.005H16.1706V31.7962H29.7624V35.005ZM43.6244 30.3888H2.37546C1.75221 30.3888 1.24505 29.8156 1.24505 29.1109V28.3195H44.7548V29.1109C44.7548 29.8156 44.2477 30.3888 43.6244 30.3888Z" fill="#5D727E"/>
<path d="M11.3979 4.62744H3.72003V6.03489H11.3979V4.62744Z" fill="#5D727E"/>
<path d="M24.7822 7.09058H3.72003V8.49803H24.7822V7.09058Z" fill="#5D727E"/>
<path d="M28.9324 9.67065H3.72003V11.0781H28.9324V9.67065Z" fill="#5D727E"/>
<path d="M6.62516 12.0166H3.72003V13.4241H6.62516V12.0166Z" fill="#5D727E"/>
<path d="M21.5658 14.5969H3.72003V16.0044H21.5658V14.5969Z" fill="#5D727E"/>
<path d="M11.1904 17.0601H3.72003V18.4675H11.1904V17.0601Z" fill="#5D727E"/>
<path d="M5.58761 19.6401H3.72003V21.0476H5.58761V19.6401Z" fill="#5D727E"/>
<path d="M29.7624 22.1033H3.72003V23.5107H29.7624V22.1033Z" fill="#5D727E"/>
</svg>
