<svg width="22" height="31.68" viewBox="0 0 13 19" fill="none" xmlns="http://www.w3.org/2000/svg">
<path d="M12.6911 9.95991C12.6842 7.76002 12.7596 4.97076 11.9784 2.87367C11.6015 1.86625 10.176 2.03758 9.33304 2.05128C9.53863 1.61268 9.46318 1.11239 9.3536 0.625811C9.30562 0.413361 9.09317 0.269444 8.88072 0.26259C7.07154 0.242031 5.28278 0.0638468 3.49409 0.420214C3.26793 0.468187 3.16513 0.680637 3.14457 0.879381C3.08289 1.37967 3.12401 1.8731 3.27478 2.34597C2.71282 2.44192 2.16456 2.57213 1.63686 2.74346C0.0743281 3.2643 0.273072 4.89537 0.35531 6.20434C0.540347 9.38423 0.663706 12.5709 0.862449 15.7509C0.876156 15.9702 1.14343 15.9976 1.23252 15.84C1.25994 15.8605 1.2805 15.8742 1.2942 15.8879C1.36273 16.025 1.4998 16.0798 1.65742 16.0456C1.71225 16.0661 1.76707 16.073 1.8219 16.0868C1.66428 17.0873 1.55462 18.9102 2.96639 18.6704C3.53521 18.5745 3.63801 17.9234 3.63801 17.4505C3.63801 17.1833 3.65171 16.5665 3.47353 16.2306C3.5215 16.2238 3.56947 16.2238 3.61059 16.2169C4.59746 16.2512 5.61173 16.1347 6.57804 16.1072C7.18791 16.0935 8.00351 16.21 8.8259 16.2512C8.79849 16.3266 8.77107 16.4019 8.74366 16.4705C8.66142 16.7172 8.64778 16.9982 8.7231 17.2517C8.7231 17.2586 8.72995 17.2723 8.73681 17.2791C8.72988 17.8136 8.90121 18.3071 9.4701 18.6292C9.64828 18.7251 9.86067 18.6703 9.96346 18.499C9.98409 18.4647 9.99773 18.4373 10.0114 18.4031C10.7927 18.2934 10.5666 16.7377 10.4089 16.1415C10.8338 16.0387 11.2177 15.8537 11.5054 15.5453C12.8555 14.1198 12.698 11.8103 12.6911 9.95991ZM4.03549 1.30428C5.50208 1.08498 6.96867 1.20834 8.44897 1.2426C8.46268 1.50988 8.44212 1.76345 8.46953 2.04443C8.46953 2.05128 8.46953 2.05814 8.47645 2.05814C7.05091 2.05814 5.52956 2.06499 4.06983 2.24317C4.02864 1.92792 4.00808 1.61268 4.03549 1.30428ZM9.97717 13.4961C9.52486 13.9622 9.28499 14.7228 9.46318 15.3671C8.79156 15.4768 8.024 15.463 7.22903 15.4219C6.03657 15.3602 4.69333 15.607 3.43919 15.5247C3.43919 15.5178 3.43919 15.511 3.43919 15.5042C3.29528 14.4213 2.46604 13.503 1.36267 13.4139L1.35581 13.407C1.33525 13.3933 1.31469 13.3933 1.30099 13.3864C1.30099 10.7548 1.1091 8.13003 0.965179 5.49839C0.958326 5.40929 0.965179 5.32706 0.965179 5.25167C1.15707 5.29964 1.39008 5.25167 1.5477 5.2174C1.88351 5.14887 2.20561 4.95013 2.47289 4.73082C2.72646 4.52523 2.93891 4.21683 2.99373 3.88788C3.02115 3.70284 3.00059 3.43557 2.90464 3.22312C4.80984 2.57891 7.68819 2.68856 9.47688 2.76395C9.23702 3.929 10.5871 4.92957 11.7179 4.75824C12.2182 7.24596 11.9715 11.3305 11.9098 12.3242C11.9029 12.4887 11.8824 12.6326 11.8618 12.7765C11.197 12.5915 10.4089 13.0439 9.97717 13.4961Z" fill="#5D727E"/>
<path d="M6.34509 5.58761C6.31082 5.39572 6.01614 5.44369 6.00928 5.63558C5.96816 8.41799 6.26285 11.4059 6.83852 14.1336C6.86594 14.2637 7.08524 14.2364 7.07153 14.0993C6.70824 11.2826 6.85223 8.36317 6.34509 5.58761Z" fill="#5D727E"/>
<path d="M4.73462 5.58075C4.23433 8.32204 4.43308 11.1867 4.52217 13.9622C4.52902 14.1199 4.76203 14.1199 4.76889 13.9622C4.83742 11.173 4.89224 8.41113 5.07728 5.62872C5.08413 5.43683 4.76889 5.39571 4.73462 5.58075Z" fill="#5D727E"/>
<path d="M2.87731 7.12261C2.8499 6.96499 2.58263 6.96499 2.56207 7.12261C2.30164 8.84277 2.62374 10.6726 2.45241 12.427C2.43871 12.5846 2.70598 12.6189 2.7334 12.4613C3.02123 10.7959 3.14459 8.80165 2.87731 7.12261Z" fill="#5D727E"/>
<path d="M8.30483 5.37502C8.30483 5.15571 7.94846 5.09403 7.9142 5.32019C7.50986 8.06148 8.06497 10.9535 8.21567 13.7085C8.22938 13.8936 8.5035 13.8936 8.5035 13.7085C8.5926 10.9398 8.29112 8.15057 8.30483 5.37502Z" fill="#5D727E"/>
<path d="M10.3611 8.3904C10.3062 8.18481 9.99782 8.18481 9.943 8.3904C9.81964 8.9044 9.943 9.50748 9.9567 10.0352C9.97726 10.7069 9.943 11.3716 9.86076 12.0363C9.83341 12.2214 10.1349 12.2556 10.1829 12.0775C10.3473 11.4813 10.3816 10.8713 10.409 10.2545C10.4296 9.67881 10.5118 8.96607 10.3611 8.3904Z" fill="#5D727E"/>
</svg>
