<svg width="73" height="76" viewBox="0 0 73 76" fill="none" xmlns="http://www.w3.org/2000/svg">
<circle cx="35" cy="30" r="29" fill="#C1DEDB" stroke="#5D727E" stroke-width="2"/>
<path d="M49.4211 25.5969L36.3996 12.5753C36.0282 12.2039 35.5327 12 34.9937 12C34.4654 12 33.9702 12.2039 33.5988 12.5753L20.5769 25.5969C19.8077 26.3664 19.8077 27.6188 20.5769 28.3877L21.7592 29.5706C22.1306 29.9417 22.6261 30.1459 23.1548 30.1459C23.6831 30.1459 24.1956 29.9417 24.5668 29.5706L32.1803 21.9734V46.1094C32.1803 47.1972 33.0323 48.0846 34.1201 48.0846H35.7923C36.8801 48.0846 37.8183 47.1972 37.8183 46.1094V21.8878L45.475 29.5706C45.8461 29.9417 46.3284 30.1459 46.8571 30.1459C47.3857 30.1459 47.8739 29.9417 48.2456 29.5706L49.4244 28.3877C50.1939 27.6185 50.1909 26.3664 49.4211 25.5969Z" fill="#5D727E"/>
<path d="M2.76578 70.5415C2.25857 70.3766 1.79828 70.1429 1.38491 69.8403C0.973608 69.5313 0.675001 69.2099 0.489092 68.8761L1.0821 68.2487C1.26357 68.553 1.52715 68.842 1.87283 69.1156C2.21852 69.3892 2.60376 69.595 3.02854 69.7331C3.41529 69.8588 3.74355 69.9165 4.01333 69.906C4.28311 69.8956 4.49979 69.8328 4.66337 69.7178C4.82902 69.5964 4.94378 69.4374 5.00767 69.2408C5.08187 69.0126 5.06555 68.804 4.95873 68.6151C4.85825 68.4282 4.70094 68.2544 4.48681 68.0936C4.28107 67.9286 4.04586 67.768 3.78116 67.6119C3.51647 67.4557 3.25169 67.2891 2.98684 67.1118C2.73039 66.9303 2.50334 66.7339 2.30569 66.5224C2.11439 66.313 1.98189 66.0736 1.9082 65.8043C1.83657 65.5287 1.85846 65.2134 1.97387 64.8583C2.08516 64.5159 2.27594 64.231 2.5462 64.0034C2.82487 63.7715 3.17906 63.6307 3.60877 63.5812C4.04688 63.5273 4.55758 63.5952 5.14087 63.7848C5.52762 63.9105 5.89471 64.0859 6.24214 64.311C6.58958 64.5361 6.87186 64.7891 7.089 65.0699L6.52785 65.7287C6.30437 65.4458 6.04753 65.2116 5.75731 65.0261C5.46916 64.8343 5.17609 64.69 4.87811 64.5931C4.50404 64.4715 4.18109 64.4191 3.90925 64.4359C3.63741 64.4527 3.41867 64.5218 3.25302 64.6432C3.09372 64.7667 2.98212 64.9267 2.91823 65.1232C2.84198 65.3578 2.8541 65.5685 2.95458 65.7554C3.0614 65.9444 3.21871 66.1182 3.4265 66.2769C3.64063 66.4376 3.87902 66.5992 4.14165 66.7617C4.40635 66.9178 4.66795 67.0835 4.92647 67.2586C5.19132 67.4359 5.4194 67.6292 5.6107 67.8386C5.80835 68.05 5.94402 68.2904 6.01771 68.5597C6.0914 68.829 6.07157 69.138 5.95822 69.4867C5.84899 69.8228 5.65504 70.1067 5.37638 70.3386C5.09977 70.5641 4.73924 70.7028 4.29479 70.7546C3.85874 70.8021 3.34907 70.7311 2.76578 70.5415Z" fill="#5D727E"/>
<path d="M9.27827 72.334C8.75567 72.198 8.31729 71.9634 7.96313 71.6302C7.61541 71.2986 7.37662 70.9058 7.24676 70.4518C7.11689 69.9978 7.11827 69.516 7.25089 69.0063C7.3835 68.4966 7.61715 68.0752 7.95181 67.742C8.28648 67.4089 8.68559 67.1855 9.14913 67.0719C9.6208 66.9536 10.1179 66.9624 10.6405 67.0983C11.1051 67.2192 11.4937 67.4202 11.8063 67.7013C12.127 67.9776 12.3404 68.3225 12.4464 68.7358L11.6216 69.0069C11.5193 68.7116 11.3607 68.474 11.1457 68.2941C10.9389 68.1094 10.6968 67.9809 10.4193 67.9087C10.0838 67.8215 9.76453 67.8176 9.4614 67.8972C9.15826 67.9767 8.89402 68.1319 8.66867 68.3625C8.445 68.5868 8.28532 68.8828 8.18963 69.2505C8.09394 69.6183 8.08827 69.9578 8.17261 70.2691C8.25695 70.5803 8.41208 70.8446 8.63799 71.0618C8.86391 71.279 9.14461 71.4313 9.48011 71.5186C9.75754 71.5907 10.0307 71.5998 10.2997 71.5458C10.5767 71.487 10.8319 71.3536 11.0651 71.1456L11.6557 71.7746C11.3634 72.0775 11.0082 72.2778 10.5901 72.3757C10.1801 72.4688 9.7428 72.4549 9.27827 72.334Z" fill="#5D727E"/>
<path d="M12.9622 73.0896L14.0151 67.8953L14.9168 68.078L14.6307 69.4893L14.614 69.1186C14.8306 68.7884 15.128 68.563 15.5061 68.4424C15.8843 68.3218 16.3217 68.3118 16.8182 68.4125L16.6335 69.3239C16.5956 69.3094 16.5571 69.2982 16.5179 69.2903C16.4852 69.2837 16.4525 69.277 16.4199 69.2704C15.9168 69.1684 15.4877 69.2379 15.1328 69.4789C14.7778 69.7198 14.5428 70.1245 14.4275 70.693L13.903 73.2803L12.9622 73.0896Z" fill="#5D727E"/>
<path d="M20.6702 74.4576C20.1423 74.3817 19.6904 74.1988 19.3145 73.909C18.9386 73.6192 18.6608 73.256 18.4811 72.8193C18.3024 72.376 18.2501 71.897 18.3241 71.3823C18.3991 70.861 18.5843 70.4162 18.8798 70.0478C19.1752 69.6794 19.5437 69.4125 19.985 69.247C20.4274 69.0749 20.9125 69.0268 21.4404 69.1027C21.9617 69.1777 22.4103 69.3601 22.7862 69.6499C23.1697 69.9341 23.4479 70.294 23.621 70.7298C23.8016 71.1599 23.8539 71.6389 23.778 72.1668C23.703 72.6881 23.5178 73.1329 23.2223 73.5012C22.9335 73.8705 22.5646 74.1408 22.1156 74.3119C21.6733 74.484 21.1915 74.5326 20.6702 74.4576ZM20.7898 73.6262C21.1263 73.6746 21.4375 73.6419 21.7232 73.5281C22.0156 73.4152 22.2576 73.2311 22.4493 72.9758C22.6419 72.7139 22.7647 72.3982 22.8179 72.0287C22.872 71.6525 22.8426 71.3183 22.7297 71.0259C22.6178 70.7269 22.4375 70.4821 22.1888 70.2914C21.9467 70.1017 21.6574 69.9826 21.3208 69.9342C20.9843 69.8858 20.6731 69.9185 20.3873 70.0323C20.1016 70.1461 19.8596 70.3302 19.6613 70.5845C19.464 70.8323 19.3383 71.1443 19.2842 71.5204C19.2311 71.8899 19.2633 72.2279 19.3808 72.5345C19.4994 72.8344 19.6797 73.0792 19.9218 73.269C20.1639 73.4587 20.4532 73.5778 20.7898 73.6262Z" fill="#5D727E"/>
<path d="M24.9608 74.8624L25.6344 67.473L26.5905 67.5602L25.9168 74.9495L24.9608 74.8624Z" fill="#5D727E"/>
<path d="M29.3735 75.1671L29.7395 67.7561L30.6983 67.8035L30.3323 75.2145L29.3735 75.1671Z" fill="#5D727E"/>
<path d="M40.0677 75.2146C39.5347 75.2354 39.1161 75.1082 38.8118 74.8332C38.5076 74.5582 38.345 74.1542 38.3243 73.6213L38.135 68.765L39.0942 68.7276L39.282 73.5439C39.2931 73.8304 39.3717 74.0475 39.5175 74.1952C39.6701 74.3427 39.8796 74.4113 40.146 74.4009C40.4458 74.3892 40.6924 74.2962 40.8857 74.1219L41.2124 74.7997C41.0707 74.932 40.8978 75.0321 40.6937 75.1001C40.4962 75.1679 40.2875 75.206 40.0677 75.2146ZM37.3116 70.7485L37.2808 69.9591L40.6583 69.8275L40.689 70.6169L37.3116 70.7485Z" fill="#5D727E"/>
<path d="M46.0596 74.73C45.5287 74.7812 45.0464 74.7105 44.6126 74.5179C44.1788 74.3253 43.8229 74.0381 43.545 73.6564C43.2664 73.268 43.1022 72.815 43.0523 72.2974C43.0018 71.7732 43.0764 71.2971 43.2763 70.8693C43.4762 70.4415 43.7709 70.0949 44.1606 69.8297C44.5497 69.5577 45.0096 69.3962 45.5405 69.345C46.0647 69.2945 46.5437 69.3655 46.9776 69.5581C47.4174 69.7434 47.7729 70.0273 48.0442 70.4097C48.3215 70.7848 48.4857 71.2378 48.5369 71.7687C48.5874 72.2929 48.5127 72.7689 48.3129 73.1968C48.1196 73.6239 47.8252 73.9738 47.4295 74.2464C47.0405 74.5183 46.5838 74.6795 46.0596 74.73ZM45.979 73.8939C46.3174 73.8613 46.612 73.7559 46.8627 73.5777C47.1201 73.3988 47.3116 73.1627 47.4374 72.8693C47.5625 72.5692 47.6072 72.2334 47.5713 71.8617C47.5349 71.4835 47.4272 71.1657 47.2484 70.9083C47.0689 70.6443 46.8357 70.4491 46.549 70.3228C46.2688 70.1957 45.9595 70.1485 45.6211 70.1811C45.2826 70.2138 44.9881 70.3192 44.7373 70.4974C44.4866 70.6756 44.2951 70.9117 44.1627 71.2058C44.0296 71.4932 43.9814 71.8261 44.0178 72.2043C44.0536 72.5759 44.1649 72.8967 44.3517 73.1667C44.5378 73.4301 44.771 73.6253 45.0511 73.7523C45.3313 73.8793 45.6406 73.9265 45.979 73.8939Z" fill="#5D727E"/>
<path d="M56.5092 73.0615C55.9859 73.1647 55.5526 73.1041 55.2094 72.8796C54.8661 72.6552 54.6428 72.2813 54.5396 71.7581L53.5988 66.99L54.5407 66.8042L55.4737 71.533C55.5292 71.8142 55.6404 72.0165 55.8075 72.1399C55.9811 72.2619 56.1987 72.2971 56.4603 72.2455C56.7546 72.1874 56.9837 72.0573 57.1477 71.855L57.5756 72.4739C57.4562 72.6266 57.301 72.7524 57.1098 72.8512C56.9252 72.9488 56.725 73.0189 56.5092 73.0615ZM53.0933 69.0773L52.9404 68.3023L56.2565 67.648L56.4094 68.4231L53.0933 69.0773Z" fill="#5D727E"/>
<path d="M62.3535 71.6526C61.837 71.7856 61.3495 71.7906 60.891 71.6677C60.4326 71.5448 60.0365 71.3163 59.7027 70.9823C59.3672 70.6419 59.1347 70.2198 59.005 69.7163C58.8737 69.2062 58.8736 68.7244 59.0046 68.2707C59.1357 67.817 59.3731 67.4289 59.7169 67.1064C60.059 66.7774 60.4883 66.5464 61.0048 66.4135C61.5148 66.2822 61.9991 66.278 62.4575 66.4009C62.9208 66.5157 63.3161 66.7409 63.6434 67.0766C63.9756 67.4041 64.2081 67.8262 64.3411 68.3427C64.4724 68.8527 64.4725 69.3345 64.3414 69.7882C64.2168 70.2402 63.9803 70.6315 63.6317 70.9622C63.2896 71.2912 62.8635 71.5214 62.3535 71.6526ZM62.1441 70.8392C62.4733 70.7544 62.748 70.6045 62.968 70.3896C63.1945 70.1729 63.3471 69.9099 63.4257 69.6006C63.5028 69.2847 63.4948 68.946 63.4017 68.5845C63.307 68.2165 63.1513 67.9192 62.9346 67.6927C62.7163 67.4598 62.4557 67.3032 62.1528 67.2228C61.8563 67.1408 61.5435 67.1422 61.2142 67.2269C60.8849 67.3117 60.6103 67.4616 60.3903 67.6765C60.1702 67.8915 60.0177 68.1545 59.9325 68.4655C59.8457 68.7701 59.8497 69.1064 59.9444 69.4744C60.0375 69.836 60.1972 70.1356 60.4236 70.3734C60.6484 70.6046 60.909 70.7613 61.2055 70.8433C61.5019 70.9253 61.8148 70.9239 62.1441 70.8392Z" fill="#5D727E"/>
<path d="M69.2172 69.5509C68.7987 69.6869 68.3842 69.7165 67.9737 69.6397C67.5674 69.5544 67.1979 69.3556 66.865 69.0432C66.5385 68.7287 66.2824 68.2862 66.097 67.7156C65.9115 67.145 65.8552 66.6375 65.9281 66.1932C66.0073 65.7469 66.1872 65.3729 66.4677 65.0715C66.7546 64.7679 67.1136 64.546 67.5447 64.4059C68.0393 64.2452 68.5118 64.2107 68.9622 64.3026C69.4127 64.3946 69.8118 64.5978 70.1594 64.9124C70.5049 65.2207 70.7612 65.6316 70.9281 66.1452C71.0951 66.6587 71.1304 67.1449 71.0342 67.6038C70.9381 68.0627 70.7348 68.4617 70.4245 68.801C70.1141 69.1402 69.7117 69.3902 69.2172 69.5509ZM67.126 72.2075L64.8878 65.3221L65.7628 65.0377L66.2048 66.3977L66.528 67.586L67.0033 68.7248L68.039 71.9107L67.126 72.2075ZM68.8814 68.7768C69.2048 68.6717 69.4695 68.505 69.6757 68.2767C69.8883 68.0464 70.0242 67.7744 70.0834 67.4607C70.147 67.1386 70.1211 66.8001 70.0056 66.445C69.8882 66.0836 69.7111 65.7977 69.4744 65.5872C69.2421 65.3683 68.9722 65.2282 68.6649 65.1669C68.3638 65.1035 68.0517 65.1244 67.7283 65.2295C67.4113 65.3325 67.1465 65.4992 66.934 65.7295C66.7278 65.9578 66.5919 66.2298 66.5263 66.5456C66.465 66.8529 66.493 67.1873 66.6105 67.5486C66.7259 67.9037 66.9008 68.1938 67.1353 68.4191C67.374 68.6359 67.6439 68.776 67.9449 68.8394C68.2522 68.9007 68.5644 68.8798 68.8814 68.7768Z" fill="#5D727E"/>
</svg>
