<svg width="1440" height="190" viewBox="0 0 1440 190" fill="none" xmlns="http://www.w3.org/2000/svg">
<path fill-rule="evenodd" clip-rule="evenodd" d="M1439.94 44.5001C1398.5 31.5001 1246 9.79988 1176.5 10.0001C1078.5 10.2824 969 29.5001 969 29.5001C969 29.5001 877.928 49.0134 728 77.4999C628 96.5001 614 99.0001 607 100.25C600 101.5 600 101.5 528 115.5C415.156 137.442 247.965 109.643 131.816 90.3301C99.7468 84.9979 71.5688 80.3127 49.4999 77.4999C22.3899 74.0447 7.59562 71.3641 0 69.3172V184C0 187.314 2.68629 190 5.99999 190H1434C1437.31 190 1440 187.314 1440 184V1.00003C1440 0.708055 1439.98 0.420951 1439.94 0.140127V44.5001Z" fill="#FFFAE9"/>
</svg>
